<svg xmlns="http://www.w3.org/2000/svg" viewBox="0 0 181.82 181.82"><defs><style>.cls-1{fill:#fff;}</style></defs><g id="Layer_2" data-name="Layer 2"><g id="Layer_3" data-name="Layer 3"><path class="cls-1" d="M171.55,0H10.26A10.28,10.28,0,0,0,0,10.26v132a10.27,10.27,0,0,0,10.26,10.26H132v14.67a14.67,14.67,0,0,0,29.33,0V152.49h10.26a10.28,10.28,0,0,0,10.27-10.26v-132A10.28,10.28,0,0,0,171.55,0ZM155.43,167.16a8.8,8.8,0,0,1-17.6,0h0v-2.94h17.6Zm0-8.8h-17.6v-2.93h17.6Zm0-8.8h-17.6v-85h17.6Zm0-90.91h-17.6V56.41l5.11-10.06,7.47,0,5,10.09ZM176,142.23a4.4,4.4,0,0,1-4.4,4.4H161.29V55.72a2.94,2.94,0,0,0-.31-1.31L149.25,31a2.93,2.93,0,0,0-3.94-1.31A3,3,0,0,0,144,31L132.27,54.41a3.08,3.08,0,0,0-.31,1.31v90.91H10.26a4.4,4.4,0,0,1-4.39-4.4V23.46H176ZM176,17.6H5.87V10.26a4.4,4.4,0,0,1,4.39-4.39H171.55a4.4,4.4,0,0,1,4.4,4.39Z"/><path class="cls-1" d="M86.25,93.84H31.06c-1.18,0-2.13,1.31-2.13,2.93s.95,2.94,2.13,2.94H86.25c1.17,0,2.12-1.32,2.12-2.94S87.42,93.84,86.25,93.84Z"/><path class="cls-1" d="M86.25,105.57H31.06c-1.18,0-2.13,1.31-2.13,2.93s.95,2.94,2.13,2.94H86.25c1.17,0,2.12-1.32,2.12-2.94S87.42,105.57,86.25,105.57Z"/><path class="cls-1" d="M68.53,117.3H30.4c-.81,0-1.47,1.32-1.47,2.93s.66,2.94,1.47,2.94H68.53c.81,0,1.47-1.32,1.47-2.94S69.34,117.3,68.53,117.3Z"/><path class="cls-1" d="M86.25,42.59H31.06a2.12,2.12,0,0,0-2.13,2.12V82.92A2.12,2.12,0,0,0,31.06,85H86.25a2.12,2.12,0,0,0,2.12-2.12V44.71A2.12,2.12,0,0,0,86.25,42.59Z"/><rect class="cls-1" x="12.97" y="8.6" width="6.25" height="6.25"/><rect class="cls-1" x="24.91" y="8.6" width="6.25" height="6.25"/><rect class="cls-1" x="37.42" y="8.6" width="6.25" height="6.25"/></g></g></svg>