<svg xmlns="http://www.w3.org/2000/svg" viewBox="0 0 183.49 154.49"><defs><style>.cls-1,.cls-2{fill:#fff;}.cls-2,.cls-3{stroke:#ed7a75;stroke-miterlimit:10;}.cls-2{stroke-width:4px;}.cls-3,.cls-4{fill:#ed7a75;}</style></defs><g id="Layer_2" data-name="Layer 2"><g id="Layer_2-2" data-name="Layer 2"><rect class="cls-1" x="93.74" y="43.52" width="60.52" height="65.46"/><rect class="cls-1" x="23.16" y="43.52" width="60.52" height="65.46"/><path class="cls-1" d="M181.49,17.87V69.64s-1.45,0-5.91,0V17.87c0-6.6-6.5-12-12-12H18.54C13.77,5.91,5.91,9,5.91,17.76V134.62c0,5.11,5.18,12,12,12l83.08.15s0,2.91,0,5.76H17.87A17.89,17.89,0,0,1,0,134.62V17.87A17.89,17.89,0,0,1,17.87,0H163.62A17.89,17.89,0,0,1,181.49,17.87Zm0,81.91a17.86,17.86,0,0,1-34.71,6H134.73v12a17.87,17.87,0,1,1-11.91,0v-12H101.67A11.91,11.91,0,0,1,89.76,93.82h33.06V60.76a11.91,11.91,0,0,1,11.91,11.91V93.82h12.05a17.87,17.87,0,0,1,34.71,6Zm-46.76,34.84a6,6,0,1,0-5.95,6A6,6,0,0,0,134.73,134.62Zm34.85-34.84a6,6,0,1,0-6,6A6,6,0,0,0,169.58,99.78ZM130.73,23.53H118.82V35.44h11.91Zm-70.59,0H48.23V35.44H60.14Zm-25.06,0H23.17V35.44H35.08Zm48.59,0H71.76V35.44H83.67Zm70.59,0H142.35V35.44h11.91ZM60.14,117.05H48.23V129H60.14Zm-25.06,0H23.17V129H35.08ZM71.46,129H83.38V117.05H71.46ZM95.29,23.53V35.44H107.2V23.53Z"/><path class="cls-2" d="M181.49,99.78a17.86,17.86,0,0,1-34.71,6H134.73v12a17.87,17.87,0,1,1-11.91,0v-12H101.67A11.91,11.91,0,0,1,89.76,93.82h33.06V60.76a11.91,11.91,0,0,1,11.91,11.91V93.82h12.05a17.87,17.87,0,0,1,34.71,6Z"/><circle class="cls-3" cx="128.78" cy="134.62" r="5.96"/><circle class="cls-4" cx="163.62" cy="99.78" r="5.96"/></g></g></svg>