<svg xmlns="http://www.w3.org/2000/svg" viewBox="0 0 182.64 165.8"><defs><style>.cls-1{fill:#fff;}</style></defs><g id="Layer_2" data-name="Layer 2"><g id="Layer_1-2" data-name="Layer 1"><g id="Layer_22" data-name="Layer 22"><path class="cls-1" d="M167.91,0H56A14.73,14.73,0,0,0,41.24,14.73v8.84H14.73A14.72,14.72,0,0,0,0,38.3v88.37A14.72,14.72,0,0,0,14.73,141.4H56v17.67H50.08c-8.14,0-14.73-1.4-14.73,6.73h82.48c0-8.13-6.59-6.73-14.73-6.73H97.21V141.4h41.24a14.72,14.72,0,0,0,14.73-14.73V106.05h14.73a14.72,14.72,0,0,0,14.73-14.73V14.73A14.72,14.72,0,0,0,167.91,0ZM56,5.89H167.91a8.84,8.84,0,0,1,8.84,8.84v2.94H47.13V14.73A8.84,8.84,0,0,1,56,5.89ZM91.32,159.07H61.86V141.4H91.32Zm47.13-23.56H14.73a8.84,8.84,0,0,1-8.84-8.84v-8.84h141.4v8.84A8.84,8.84,0,0,1,138.45,135.51Zm8.84-23.57H5.89V38.3a8.84,8.84,0,0,1,8.84-8.84H41.24V91.32A14.73,14.73,0,0,0,56,106.05h91.32Zm20.62-11.78H56a8.84,8.84,0,0,1-8.84-8.84V23.57H176.75V91.32A8.84,8.84,0,0,1,167.91,100.16Z"/><path class="cls-1" d="M72.05,122.13h9.09v9.09H72.05Z"/><path class="cls-1" d="M124.08,50.9a11.12,11.12,0,0,1,2.48,7.2,7.21,7.21,0,0,1-3.3,6.32h0a5.49,5.49,0,0,1-2.71.74h-2.83a5.49,5.49,0,0,1-2.71-.74,7.23,7.23,0,0,1-3.3-6.32,5.49,5.49,0,0,1,2.52-4.8,10.53,10.53,0,0,0,4.91-8.19m-3.72,28.47a12.82,12.82,0,0,0,2.3.3h2.83a12.82,12.82,0,0,0,2.3-.3v26.47h-7.43Zm33.43-8.42h7.43v34.89h-7.43Zm.45-8.72,1.26-5,3-.59,2.29,5.61Zm29.26,43.61H163.7V60.8a5.39,5.39,0,0,0,0-1.39l-7.42-26.17c-.64-2.28-2.74-3.53-4.69-2.78a4.13,4.13,0,0,0-2.37,2.78l-7.43,26.17a5.94,5.94,0,0,0-.37,1.39v39.25H130.28V69A17.2,17.2,0,0,0,134,58.1a20.36,20.36,0,0,0-4.72-13.34L118.13,31.68a3.32,3.32,0,0,0-4-.92,4.35,4.35,0,0,0-2.37,3.88V44a1.77,1.77,0,0,1-.78,1.48c-4.08,2.37-6.66,7.26-6.65,12.6A17.26,17.26,0,0,0,108,69v31.09H44.85V21.56H178.56Z"/></g></g></g></svg>