<svg xmlns="http://www.w3.org/2000/svg" xmlns:xlink="http://www.w3.org/1999/xlink" viewBox="0 0 416 115.07"><defs><style>.cls-1{fill:url(#linear-gradient);}</style><linearGradient id="linear-gradient" y1="57.53" x2="416" y2="57.53" gradientUnits="userSpaceOnUse"><stop offset="0.1" stop-color="#ed7a75"/><stop offset="0.62" stop-color="#ec008c"/><stop offset="1" stop-color="#be1e2d"/></linearGradient></defs><g id="Layer_2" data-name="Layer 2"><g id="Layer_1-2" data-name="Layer 1"><path d="M66.63,112.68V68.56H25.49v44.12H0V7.15H25.49v40H66.63V7.15H92.11V112.68Z"/><path d="M186.17,76.46v3a28.29,28.29,0,0,1-.15,2.83H132.21a13,13,0,0,0,1.86,5.66,16,16,0,0,0,4,4.4,19.83,19.83,0,0,0,11.85,4,20.55,20.55,0,0,0,9.83-2.16,19.46,19.46,0,0,0,6.56-5.59l17,10.73A34.36,34.36,0,0,1,169.55,111a45.7,45.7,0,0,1-19.9,4.1,47.44,47.44,0,0,1-15.8-2.61,38.28,38.28,0,0,1-13-7.6,35.23,35.23,0,0,1-8.8-12.3,41.1,41.1,0,0,1-3.2-16.69,41.72,41.72,0,0,1,3.13-16.47,37.23,37.23,0,0,1,8.49-12.52,37.91,37.91,0,0,1,12.67-8,43.52,43.52,0,0,1,15.8-2.83A40,40,0,0,1,164,38.83a32.88,32.88,0,0,1,11.77,8,36.87,36.87,0,0,1,7.68,12.67A48.75,48.75,0,0,1,186.17,76.46Zm-22.51-9.39a14.66,14.66,0,0,0-3.65-10q-3.66-4.17-11-4.18A18.7,18.7,0,0,0,142.49,54a17.06,17.06,0,0,0-5.21,3.06,15.12,15.12,0,0,0-3.58,4.54,13.27,13.27,0,0,0-1.49,5.44Z"/><path d="M201.67,112.68V0h24.89V112.68Z"/><path d="M246.08,112.68V0H271V112.68Z"/><path d="M368.9,75.27a40.06,40.06,0,0,1-3.28,16.47,37.06,37.06,0,0,1-8.94,12.52,41,41,0,0,1-13.12,8,46.14,46.14,0,0,1-31.82,0,39.94,39.94,0,0,1-13.12-8,37.58,37.58,0,0,1-8.87-12.52,40.23,40.23,0,0,1-3.28-16.47,39.68,39.68,0,0,1,3.28-16.39,37,37,0,0,1,8.87-12.38,38.75,38.75,0,0,1,13.12-7.75,48.57,48.57,0,0,1,31.82,0,39.74,39.74,0,0,1,13.12,7.75,36.5,36.5,0,0,1,8.94,12.38A39.52,39.52,0,0,1,368.9,75.27Zm-23.55,0a21.27,21.27,0,0,0-1.19-7,18.61,18.61,0,0,0-3.43-6A17.49,17.49,0,0,0,335.21,58,18.43,18.43,0,0,0,320,58a16.62,16.62,0,0,0-5.44,4.25,18.28,18.28,0,0,0-3.28,6,22.47,22.47,0,0,0,0,14,19.14,19.14,0,0,0,3.36,6.18,16.39,16.39,0,0,0,5.51,4.4,18.43,18.43,0,0,0,15.2,0,16.43,16.43,0,0,0,5.52-4.4,19.12,19.12,0,0,0,3.35-6.18A22.35,22.35,0,0,0,345.35,75.27Z"/><path d="M416,100a13.92,13.92,0,0,1-1.12,5.59,13,13,0,0,1-3.13,4.48,15.83,15.83,0,0,1-4.69,3,15.28,15.28,0,0,1-11.26.07,13.27,13.27,0,0,1-4.54-3,15.46,15.46,0,0,1-3.13-4.47,12.74,12.74,0,0,1-1.2-5.52,13.8,13.8,0,0,1,1.12-5.44,14.12,14.12,0,0,1,7.68-7.6,14.89,14.89,0,0,1,11.33,0,15.83,15.83,0,0,1,4.69,3,13.09,13.09,0,0,1,3.13,4.47A13.62,13.62,0,0,1,416,100ZM388.87,77.36V7.15h24.89V77.36Z"/><path class="cls-1" d="M66.63,112.68V68.56H25.49v44.12H0V7.15H25.49v40H66.63V7.15H92.11V112.68Z"/><path class="cls-1" d="M186.17,76.46v3a28.29,28.29,0,0,1-.15,2.83H132.21a13,13,0,0,0,1.86,5.66,16,16,0,0,0,4,4.4,19.83,19.83,0,0,0,11.85,4,20.55,20.55,0,0,0,9.83-2.16,19.46,19.46,0,0,0,6.56-5.59l17,10.73A34.36,34.36,0,0,1,169.55,111a45.7,45.7,0,0,1-19.9,4.1,47.44,47.44,0,0,1-15.8-2.61,38.28,38.28,0,0,1-13-7.6,35.23,35.23,0,0,1-8.8-12.3,41.1,41.1,0,0,1-3.2-16.69,41.72,41.72,0,0,1,3.13-16.47,37.23,37.23,0,0,1,8.49-12.52,37.91,37.91,0,0,1,12.67-8,43.52,43.52,0,0,1,15.8-2.83A40,40,0,0,1,164,38.83a32.88,32.88,0,0,1,11.77,8,36.87,36.87,0,0,1,7.68,12.67A48.75,48.75,0,0,1,186.17,76.46Zm-22.51-9.39a14.66,14.66,0,0,0-3.65-10q-3.66-4.17-11-4.18A18.7,18.7,0,0,0,142.49,54a17.06,17.06,0,0,0-5.21,3.06,15.12,15.12,0,0,0-3.58,4.54,13.27,13.27,0,0,0-1.49,5.44Z"/><path class="cls-1" d="M201.67,112.68V0h24.89V112.68Z"/><path class="cls-1" d="M246.08,112.68V0H271V112.68Z"/><path class="cls-1" d="M368.9,75.27a40.06,40.06,0,0,1-3.28,16.47,37.06,37.06,0,0,1-8.94,12.52,41,41,0,0,1-13.12,8,46.14,46.14,0,0,1-31.82,0,39.94,39.94,0,0,1-13.12-8,37.58,37.58,0,0,1-8.87-12.52,40.23,40.23,0,0,1-3.28-16.47,39.68,39.68,0,0,1,3.28-16.39,37,37,0,0,1,8.87-12.38,38.75,38.75,0,0,1,13.12-7.75,48.57,48.57,0,0,1,31.82,0,39.74,39.74,0,0,1,13.12,7.75,36.5,36.5,0,0,1,8.94,12.38A39.52,39.52,0,0,1,368.9,75.27Zm-23.55,0a21.27,21.27,0,0,0-1.19-7,18.61,18.61,0,0,0-3.43-6A17.49,17.49,0,0,0,335.21,58,18.43,18.43,0,0,0,320,58a16.62,16.62,0,0,0-5.44,4.25,18.28,18.28,0,0,0-3.28,6,22.47,22.47,0,0,0,0,14,19.14,19.14,0,0,0,3.36,6.18,16.39,16.39,0,0,0,5.51,4.4,18.43,18.43,0,0,0,15.2,0,16.43,16.43,0,0,0,5.52-4.4,19.12,19.12,0,0,0,3.35-6.18A22.35,22.35,0,0,0,345.35,75.27Z"/><path class="cls-1" d="M416,100a13.92,13.92,0,0,1-1.12,5.59,13,13,0,0,1-3.13,4.48,15.83,15.83,0,0,1-4.69,3,15.28,15.28,0,0,1-11.26.07,13.27,13.27,0,0,1-4.54-3,15.46,15.46,0,0,1-3.13-4.47,12.74,12.74,0,0,1-1.2-5.52,13.8,13.8,0,0,1,1.12-5.44,14.12,14.12,0,0,1,7.68-7.6,14.89,14.89,0,0,1,11.33,0,15.83,15.83,0,0,1,4.69,3,13.09,13.09,0,0,1,3.13,4.47A13.62,13.62,0,0,1,416,100ZM388.87,77.36V7.15h24.89V77.36Z"/></g></g></svg>